# xmcd CD database file
# Copyright (C) 1995-1998 Ti Kan
#
# Track frame offsets:
#	150
#	16481
#	33616
#	54500
#	83611
#	96713
#	113534
#	130285
#	138173
#	175628
#
# Disc length: 2538 seconds
#
# Revision: 2
# Processed by: cddbd v1.4PL0 Copyright (c) Steve Scherf et al.
# Submitted via: CDex 1.30Release
#
DISCID=7d09e80a
DTITLE=Chris Thomas King - It's a Cold Ass World - The Beginning
DYEAR=1986
DGENRE=Blues
TTITLE0=The Blues is Back
TTITLE1=Soon This Morning
TTITLE2=Cheatin' Women Blues
TTITLE3=Cocaine
TTITLE4=Mary Jane
TTITLE5=Take Yo Time
TTITLE6=Going Home to Louisiana
TTITLE7=South Side Shuffle
TTITLE8=You'll Be Sorry, Baby
TTITLE9=Don't Work Too Hard
EXTD=YEAR: 1986, 2001 ID3G:   0
EXTT0=
EXTT1=
EXTT2=
EXTT3=
EXTT4=
EXTT5=
EXTT6=
EXTT7=
EXTT8=
EXTT9=
PLAYORDER=
